M48
; DRILL file {KiCad 8.0.8-8.0.8-0~ubuntu24.04.1} date 2025-04-29T16:21:52-0400
; FORMAT={-:-/ absolute / inch / decimal}
; #@! TF.CreationDate,2025-04-29T16:21:52-04:00
; #@! TF.GenerationSoftware,Kicad,Pcbnew,8.0.8-8.0.8-0~ubuntu24.04.1
; #@! TF.FileFunction,Plated,1,2,PTH
FMAT,2
INCH
; #@! TA.AperFunction,Plated,PTH,ComponentDrill
T1C0.0079
; #@! TA.AperFunction,Plated,PTH,ViaDrill
T2C0.0118
; #@! TA.AperFunction,Plated,PTH,ComponentDrill
T3C0.0394
; #@! TA.AperFunction,Plated,PTH,ComponentDrill
T4C0.0512
%
G90
G05
T1
X4.4646Y-3.2795
X4.4646Y-3.3346
X4.4921Y-3.252
X4.4921Y-3.3071
X4.4921Y-3.3622
X4.5197Y-3.2795
X4.5197Y-3.3346
X4.5472Y-3.252
X4.5472Y-3.3071
X4.5472Y-3.3622
X4.5748Y-3.2795
X4.5748Y-3.3346
X4.7328Y-4.1014
X4.7328Y-4.1447
X5.9586Y-3.9138
X5.9586Y-3.9602
X5.9749Y-4.1398
X5.9749Y-4.1831
X6.005Y-3.9138
X6.005Y-3.9602
T2
X4.2657Y-3.5315
X4.3081Y-2.7677
X4.4094Y-3.7362
X4.5541Y-2.7628
X4.6722Y-2.689
X4.7087Y-2.5659
X4.7087Y-3.6909
X4.752Y-2.7234
X4.7972Y-2.9724
X4.7972Y-3.5404
X4.7972Y-4.0138
X4.8474Y-2.4124
X4.8551Y-2.9634
X4.8701Y-2.8327
X4.9636Y-3.5886
X4.9646Y-2.8327
X4.9685Y-2.5551
X4.9724Y-3.2736
X4.9724Y-3.3248
X4.9724Y-3.372
X4.9734Y-3.4222
X4.9783Y-3.0236
X5.0778Y-2.4085
X5.1772Y-3.7136
X5.5709Y-3.8071
X5.6181Y-3.8071
X5.8445Y-3.563
X5.8858Y-3.7835
X5.9252Y-3.5157
X5.9636Y-3.3711
X5.9744Y-3.3248
X6.0098Y-3.3583
X6.0492Y-2.6732
X6.0748Y-2.7185
X6.0945Y-3.7835
X6.0965Y-3.9646
X6.2697Y-2.3878
X6.2717Y-3.7146
X6.3661Y-3.5945
X6.5098Y-3.5925
X6.6398Y-3.6909
X6.7047Y-3.7047
X6.7805Y-3.6575
X6.9114Y-3.3189
T3
X4.2795Y-2.3071
X4.5787Y-2.3071
X5.8094Y-2.5374
X5.9094Y-2.5374
X6.0094Y-2.5374
X6.1094Y-2.5374
X6.939Y-3.7492
X6.939Y-3.8492
X6.939Y-3.9492
X6.939Y-4.0492
T4
X4.8425Y-2.1811
X5.0394Y-2.1811
X5.2362Y-2.1811
X5.4331Y-2.1811
X5.5945Y-4.2992
X5.6299Y-2.1811
X5.7913Y-4.2992
X6.0197Y-2.1811
X6.2165Y-2.1811
X6.3031Y-4.2992
X6.4134Y-2.1811
X6.5Y-4.2992
M30
